<svg width="278" height="63" viewBox="0 0 278 63" fill="none" xmlns="http://www.w3.org/2000/svg"><path d="M0.0568181 62V3.81818H39.2614V13.9602H12.358V27.8239H37.2443V37.9659H12.358V51.858H39.375V62H0.0568181ZM64.8935 62.7102C61.5791 62.7102 58.5772 61.858 55.8878 60.1534C53.2173 58.4299 51.0961 55.9015 49.5241 52.5682C47.9711 49.2159 47.1946 45.1061 47.1946 40.2386C47.1946 35.2386 47.9995 31.0814 49.6094 27.767C51.2192 24.4337 53.3594 21.9432 56.0298 20.2955C58.7192 18.6288 61.6643 17.7955 64.8651 17.7955C67.3082 17.7955 69.3442 18.2121 70.973 19.0455C72.6207 19.8598 73.9465 20.8826 74.9503 22.1136C75.973 23.3258 76.7495 24.5189 77.2798 25.6932H77.6491V3.81818H89.723V62H77.7912V55.0114H77.2798C76.7116 56.2235 75.9067 57.4261 74.8651 58.6193C73.8423 59.7936 72.5071 60.7689 70.8594 61.5455C69.2306 62.322 67.242 62.7102 64.8935 62.7102ZM68.7287 53.0795C70.6795 53.0795 72.3272 52.5492 73.6719 51.4886C75.0355 50.4091 76.0772 48.9034 76.7969 46.9716C77.5355 45.0398 77.9048 42.7765 77.9048 40.1818C77.9048 37.5871 77.545 35.3333 76.8253 33.4205C76.1056 31.5076 75.0639 30.0303 73.7003 28.9886C72.3366 27.947 70.6795 27.4261 68.7287 27.4261C66.7401 27.4261 65.0639 27.9659 63.7003 29.0455C62.3366 30.125 61.3045 31.6212 60.6037 33.5341C59.9029 35.447 59.5526 37.6629 59.5526 40.1818C59.5526 42.7197 59.9029 44.964 60.6037 46.9148C61.3234 48.8466 62.3556 50.3617 63.7003 51.4602C65.0639 52.5398 66.7401 53.0795 68.7287 53.0795ZM99.6733 62V18.3636H111.776V62H99.6733ZM105.753 12.7386C103.954 12.7386 102.41 12.142 101.122 10.9489C99.8532 9.73674 99.2188 8.28788 99.2188 6.60227C99.2188 4.9356 99.8532 3.50568 101.122 2.3125C102.41 1.10038 103.954 0.494315 105.753 0.494315C107.552 0.494315 109.086 1.10038 110.355 2.3125C111.643 3.50568 112.287 4.9356 112.287 6.60227C112.287 8.28788 111.643 9.73674 110.355 10.9489C109.086 12.142 107.552 12.7386 105.753 12.7386Z" fill="#6200FF"/><path d="M157.777 30.8068L146.697 31.4886C146.508 30.5417 146.101 29.6894 145.476 28.9318C144.851 28.1553 144.027 27.5398 143.004 27.0852C142 26.6117 140.798 26.375 139.396 26.375C137.521 26.375 135.94 26.7727 134.652 27.5682C133.364 28.3447 132.72 29.3864 132.72 30.6932C132.72 31.7348 133.137 32.6155 133.97 33.3352C134.804 34.0549 136.233 34.6326 138.26 35.0682L146.158 36.6591C150.4 37.5303 153.563 38.9318 155.646 40.8636C157.73 42.7955 158.771 45.3333 158.771 48.4773C158.771 51.3371 157.929 53.8466 156.243 56.0057C154.576 58.1648 152.285 59.8504 149.368 61.0625C146.47 62.2557 143.127 62.8523 139.339 62.8523C133.563 62.8523 128.961 61.6496 125.533 59.2443C122.124 56.8201 120.125 53.5246 119.538 49.358L131.442 48.733C131.802 50.4943 132.673 51.839 134.055 52.767C135.438 53.6761 137.209 54.1307 139.368 54.1307C141.489 54.1307 143.194 53.7235 144.482 52.9091C145.788 52.0758 146.451 51.0057 146.47 49.6989C146.451 48.6004 145.987 47.7008 145.078 47C144.169 46.2803 142.768 45.7311 140.874 45.3523L133.317 43.8466C129.055 42.9943 125.883 41.517 123.8 39.4148C121.735 37.3125 120.703 34.6326 120.703 31.375C120.703 28.572 121.461 26.1572 122.976 24.1307C124.51 22.1042 126.66 20.5417 129.425 19.4432C132.209 18.3447 135.466 17.7955 139.197 17.7955C144.709 17.7955 149.046 18.9602 152.209 21.2898C155.391 23.6193 157.247 26.7917 157.777 30.8068ZM186.278 62.8523C181.79 62.8523 177.926 61.9432 174.688 60.125C171.468 58.2879 168.987 55.6932 167.244 52.3409C165.502 48.9697 164.631 44.983 164.631 40.3807C164.631 35.892 165.502 31.9527 167.244 28.5625C168.987 25.1723 171.439 22.5303 174.602 20.6364C177.784 18.7424 181.515 17.7955 185.795 17.7955C188.674 17.7955 191.354 18.2595 193.835 19.1875C196.335 20.0966 198.513 21.4697 200.369 23.3068C202.244 25.1439 203.703 27.4545 204.744 30.2386C205.786 33.0038 206.307 36.2424 206.307 39.9545V43.2784H169.46V35.7784H194.915C194.915 34.036 194.536 32.4924 193.778 31.1477C193.021 29.803 191.97 28.7519 190.625 27.9943C189.299 27.2178 187.756 26.8295 185.994 26.8295C184.157 26.8295 182.528 27.2557 181.108 28.108C179.706 28.9413 178.608 30.0682 177.812 31.4886C177.017 32.8902 176.61 34.4527 176.591 36.1761V43.3068C176.591 45.4659 176.989 47.3314 177.784 48.9034C178.598 50.4754 179.744 51.6875 181.222 52.5398C182.699 53.392 184.451 53.8182 186.477 53.8182C187.822 53.8182 189.053 53.6288 190.17 53.25C191.288 52.8712 192.244 52.303 193.04 51.5455C193.835 50.7879 194.441 49.8598 194.858 48.7614L206.051 49.5C205.483 52.1894 204.318 54.5379 202.557 56.5455C200.814 58.5341 198.561 60.0871 195.795 61.2045C193.049 62.303 189.877 62.8523 186.278 62.8523ZM214.205 62V18.3636H225.739V26.0625H226.25C227.159 23.5057 228.674 21.4886 230.795 20.0114C232.917 18.5341 235.455 17.7955 238.409 17.7955C241.402 17.7955 243.949 18.5436 246.051 20.0398C248.153 21.517 249.555 23.5246 250.256 26.0625H250.71C251.6 23.5625 253.21 21.5644 255.54 20.0682C257.888 18.553 260.663 17.7955 263.864 17.7955C267.936 17.7955 271.241 19.0928 273.778 21.6875C276.335 24.2633 277.614 27.9186 277.614 32.6534V62H265.54V35.0398C265.54 32.6155 264.896 30.7973 263.608 29.5852C262.32 28.3731 260.71 27.767 258.778 27.767C256.581 27.767 254.867 28.4678 253.636 29.8693C252.405 31.2519 251.79 33.0795 251.79 35.3523V62H240.057V34.7841C240.057 32.6439 239.441 30.9394 238.21 29.6705C236.998 28.4015 235.398 27.767 233.409 27.767C232.064 27.767 230.852 28.108 229.773 28.7898C228.712 29.4527 227.869 30.3902 227.244 31.6023C226.619 32.7955 226.307 34.197 226.307 35.8068V62H214.205Z" fill="#202020"/></svg>
