<svg width="176" height="37" viewBox="0 0 176 37" fill="none" xmlns="http://www.w3.org/2000/svg"><path d="M59.7901 33.2899H49.1101V3.16992H59.8801C62.9101 3.16992 65.5201 3.76992 67.7001 4.97992C69.8901 6.17992 71.5701 7.89992 72.7401 10.1399C73.9301 12.3899 74.5201 15.0699 74.5201 18.1999C74.5201 21.3299 73.9301 24.0299 72.7401 26.2899C71.5601 28.5499 69.8701 30.2799 67.6701 31.4799C65.4701 32.6899 62.8501 33.2899 59.7901 33.2899ZM55.4801 27.8299H59.5201C61.4001 27.8299 62.9901 27.4999 64.2701 26.8299C65.5601 26.1499 66.5301 25.1099 67.1801 23.6999C67.8401 22.2799 68.1701 20.4399 68.1701 18.1999C68.1701 15.9599 67.8401 14.1599 67.1801 12.7399C66.5301 11.3299 65.5701 10.2899 64.2801 9.61992C63.0001 8.94992 61.4101 8.61992 59.5301 8.61992H55.4701V27.8399L55.4801 27.8299Z" fill="#505050"/><path d="M85.61 3.16992V33.2899H79.24V3.16992H85.61Z" fill="#505050"/><path d="M107.19 11.8305C107.07 10.6405 106.57 9.72047 105.67 9.07047C104.78 8.41047 103.57 8.08047 102.04 8.08047C101 8.08047 100.12 8.23047 99.4099 8.52047C98.6899 8.80047 98.1499 9.20047 97.7599 9.71047C97.3899 10.2205 97.1999 10.8005 97.1999 11.4505C97.1799 11.9905 97.2899 12.4605 97.5399 12.8605C97.7899 13.2605 98.1399 13.6105 98.5799 13.9005C99.0199 14.1805 99.5299 14.4305 100.11 14.6505C100.69 14.8605 101.31 15.0305 101.96 15.1805L104.67 15.8305C105.98 16.1205 107.19 16.5205 108.29 17.0105C109.39 17.5005 110.34 18.1005 111.14 18.8205C111.94 19.5405 112.57 20.3805 113.01 21.3505C113.46 22.3205 113.69 23.4305 113.7 24.6905C113.7 26.5305 113.22 28.1305 112.29 29.4805C111.37 30.8205 110.03 31.8705 108.29 32.6105C106.55 33.3505 104.46 33.7105 102.01 33.7105C99.5599 33.7105 97.4599 33.3405 95.6599 32.5905C93.8699 31.8405 92.4599 30.7405 91.4499 29.2805C90.4499 27.8105 89.9299 25.9905 89.8799 23.8205H96.0399C96.1099 24.8305 96.3999 25.6705 96.9099 26.3505C97.4299 27.0205 98.1199 27.5205 98.9799 27.8605C99.8499 28.1905 100.84 28.3605 101.94 28.3605C103.04 28.3605 103.95 28.2005 104.75 27.8905C105.55 27.5805 106.18 27.1405 106.62 26.5805C107.06 26.0205 107.28 25.3805 107.28 24.6505C107.28 23.9705 107.08 23.4005 106.68 22.9405C106.29 22.4805 105.71 22.0905 104.94 21.7605C104.18 21.4405 103.26 21.1405 102.16 20.8805L98.8799 20.0605C96.3399 19.4405 94.3399 18.4805 92.8599 17.1605C91.3899 15.8505 90.6599 14.0805 90.6699 11.8505C90.6699 10.0305 91.1499 8.43047 92.1299 7.07047C93.1199 5.71047 94.4799 4.64047 96.1999 3.88047C97.9299 3.12047 99.8899 2.73047 102.08 2.73047C104.27 2.73047 106.27 3.11047 107.93 3.88047C109.61 4.64047 110.91 5.71047 111.84 7.07047C112.77 8.43047 113.25 10.0105 113.28 11.8105H107.18L107.19 11.8305Z" fill="#505050"/><path d="M117.99 33.2899V3.16992H138.29V8.41992H124.36V15.5999H137.24V20.8499H124.36V28.0399H138.35V33.2899H118H117.99Z" fill="#505050"/><path d="M143.35 3.16992H151.2L159.49 23.4099H159.84L168.13 3.16992H175.98V33.2899H169.8V13.6899H169.55L161.76 33.1499H157.55L149.76 13.6199H149.51V33.2999H143.33V3.16992H143.35Z" fill="#505050"/><path d="M15.0999 31.6402C22.5281 31.6402 28.5499 25.6185 28.5499 18.1902C28.5499 10.762 22.5281 4.74023 15.0999 4.74023C7.67167 4.74023 1.6499 10.762 1.6499 18.1902C1.6499 25.6185 7.67167 31.6402 15.0999 31.6402Z" fill="#F2F2F2"/><path d="M43.0099 20.8496V15.5996H33.4499C33.5699 16.4496 33.6499 17.3096 33.6499 18.1896C33.6499 19.0696 33.5599 19.9796 33.4399 20.8496H43.0099Z" fill="#6200FF"/><path d="M44.0499 3.16992H25.9399C27.8899 4.57992 29.5599 6.36992 30.8399 8.41992H44.0499V3.16992Z" fill="#6200FF"/><path d="M30.7898 28.04C29.4898 30.1 27.8098 31.88 25.8398 33.29H44.1098V28.04H30.7898Z" fill="#6200FF"/><path fill-rule="evenodd" clip-rule="evenodd" d="M14.24 32.4295V3.51953H16.18V32.4195H14.24V32.4295Z" fill="#6200FF"/><path fill-rule="evenodd" clip-rule="evenodd" d="M27.61 12.15H3.02002V10.21H27.61V12.15Z" fill="#6200FF"/><path fill-rule="evenodd" clip-rule="evenodd" d="M27.6099 25.9595H2.15991V24.0195H27.6099V25.9595Z" fill="#6200FF"/><path fill-rule="evenodd" clip-rule="evenodd" d="M28.9001 19.0601H0.860107V17.1201H28.9001V19.0601Z" fill="#6200FF"/><path fill-rule="evenodd" clip-rule="evenodd" d="M19.51 27.9098C20.88 25.5198 21.78 22.0898 21.78 18.1998C21.78 14.3098 20.87 10.8798 19.51 8.48984C18.11 6.04984 16.48 5.04984 15.09 5.04984C13.7 5.04984 12.07 6.04984 10.67 8.48984C9.29997 10.8798 8.39997 14.3098 8.39997 18.1998C8.39997 22.0898 9.30997 25.5198 10.67 27.9098C12.07 30.3498 13.7 31.3498 15.09 31.3498C16.48 31.3498 18.11 30.3498 19.51 27.9098ZM15.09 33.2998C19.86 33.2998 23.72 26.5398 23.72 18.1998C23.72 9.85984 19.86 3.08984 15.1 3.08984C10.34 3.08984 6.46997 9.84984 6.46997 18.1898C6.46997 26.5298 10.33 33.2898 15.1 33.2898L15.09 33.2998Z" fill="#6200FF"/><path fill-rule="evenodd" clip-rule="evenodd" d="M15.1 31.3498C22.37 31.3498 28.26 25.4598 28.26 18.1898C28.26 10.9198 22.37 5.02984 15.1 5.02984C7.83 5.02984 1.94 10.9298 1.94 18.1898C1.94 25.4498 7.83 31.3498 15.1 31.3498ZM15.1 33.2898C23.44 33.2898 30.2 26.5298 30.2 18.1898C30.2 9.84984 23.44 3.08984 15.1 3.08984C6.76 3.08984 0 9.84984 0 18.1898C0 26.5298 6.76 33.2898 15.1 33.2898Z" fill="#6200FF"/></svg>
